<?xml version="1.0" encoding="UTF-8" standalone="no"?>
<!-- Created with Inkscape (http://www.inkscape.org/) -->

<svg
   version="1.1"
   id="svg1"
   width="349"
   height="421"
   viewBox="0 0 349 421"
   xmlns="http://www.w3.org/2000/svg"
   xmlns:svg="http://www.w3.org/2000/svg">
  <defs
     id="defs1" />
  <g
     id="g1">
    <path
       style="fill:#000000"
       d="m 32.807281,415.26414 c -0.840554,-0.97028 -3.253831,-4.88934 -5.362837,-8.70903 l -3.834558,-6.9449 0.195672,-13.15038 c 0.146064,-9.81647 -0.300331,-15.51997 -1.760772,-22.49706 -2.530059,-12.08707 -1.715022,-14.21271 7.004916,-18.26911 l 6.032719,-2.80633 -2.29121,-1.87854 c -1.898098,-1.55622 -2.09424,-2.20251 -1.143189,-3.7668 0.93717,-1.54146 0.804552,-2.10277 -0.722059,-3.05615 -1.028545,-0.64234 -1.641921,-1.76247 -1.363058,-2.48917 0.282036,-0.73498 -0.617846,-1.9233 -2.02794,-2.67796 -3.236952,-1.73236 -3.253878,-4.73403 -0.03496,-6.20066 3.139209,-1.43032 3.139209,-2.138 0,-3.81805 -3.243897,-1.73608 -3.178995,-3.607 0.163778,-4.72126 l 2.663778,-0.88793 -3.687619,-2.17574 c -7.120502,-4.2012 -5.744574,-7.42349 2.805411,-6.56999 L 34.5,305.14965 31.977161,302.81819 C 26.024225,297.31682 24.153737,292 28.171259,292 c 1.194193,0 3.070497,0.7875 4.169566,1.75 1.920605,1.68195 1.969652,1.67223 1.261388,-0.25 -0.405305,-1.1 -1.340653,-4.58301 -2.078552,-7.74003 -2.157252,-9.22956 -0.142738,-12.50001 3.812638,-6.1896 1.009964,1.6113 3.349053,5.35312 5.197974,8.31516 1.848922,2.96204 4.536566,8.58704 5.972542,12.5 3.364207,9.16728 4.914937,11.33926 6.912354,9.68155 1.915643,-1.58984 7.313594,-11.15414 8.129137,-14.40352 1.841664,-7.33778 12.477971,-14.59798 24.570173,-16.77128 7.606462,-1.36708 14.347911,-5.64026 18.368901,-11.64341 1.38107,-2.06188 4.26195,-6.19296 6.40194,-9.18019 3.32187,-4.63701 3.6876,-5.63462 2.50079,-6.82143 C 112.62555,250.48269 112,248.32747 112,246.45788 c 0,-3.14871 0.40539,-3.58469 5.5,-5.91502 3.025,-1.38366 5.5,-2.86708 5.5,-3.29648 0,-0.4294 2.00862,-3.07688 4.4636,-5.88329 2.45497,-2.80641 4.24238,-5.32377 3.97202,-5.59414 -0.27037,-0.27036 -0.0636,-1.61719 0.45944,-2.99294 0.72559,-1.90846 0.56569,-2.88669 -0.67463,-4.127 -0.98028,-0.98029 -1.64445,-3.3456 -1.67303,-5.95818 -0.03,-2.73994 -0.69013,-4.97547 -1.7959,-6.08161 -2.16205,-2.16276 -2.99775,-5.30702 -2.57518,-9.68892 0.39205,-4.06543 4.64464,-7.31624 10.87389,-8.31234 6.02867,-0.96402 8.67346,-2.61477 16.48788,-10.29093 3.84329,-3.77529 8.66947,-7.66217 10.72485,-8.63752 2.05538,-0.97534 3.73706,-2.18657 3.73706,-2.69163 0,-0.50506 1.28583,-2.39645 2.85741,-4.20308 1.57157,-1.80664 3.16804,-4.97807 3.54772,-7.04763 l 0.69031,-3.76282 -7.29772,4.57627 c -4.01375,2.51696 -11.57114,7.67902 -16.79421,11.47126 -11.85391,8.6066 -16.92931,11.10156 -30.06919,14.78142 -10.05015,2.81457 -19.83699,7.59366 -19.90271,9.71886 -0.05299,1.71355 5.97326,8.429 8.94122,9.96379 3.20361,1.65665 4.45619,5.25543 3.08472,8.86267 -0.63416,1.66797 -0.55931,3.51112 0.22721,5.59484 1.47505,3.90786 0.11225,6.42612 -3.72406,6.8815 C 105.66412,224.16879 102,221.66676 102,219.34501 102,218.58034 100.93126,218 99.523053,218 c -3.333969,0 -5.925343,-4.04109 -5.302778,-8.26937 0.742792,-5.04481 -1.426646,-12.02517 -4.161002,-13.3884 C 87.178741,194.90613 83,190.17185 83,188.34446 83,187.60501 82.55,187 82,187 c -0.55,0 -1,-1.09844 -1,-2.44098 0,-1.34254 -0.45,-2.7191 -1,-3.05902 -1.536128,-0.94938 -1.187508,-4.63532 0.62817,-6.64163 1.509638,-1.66813 1.464482,-2.20241 -0.620263,-7.33889 -1.739325,-4.28542 -3.021531,-5.90664 -5.662748,-7.15998 -4.462872,-2.11777 -5.673106,-4.59469 -5.109736,-10.4578 l 0.461861,-4.80667 -4.068714,-1.29752 C 60.459649,142.14914 57,137.29094 57,131.68086 c 0,-2.24761 0.690866,-4.78678 1.5653,-5.75302 1.448264,-1.60031 1.292313,-1.81973 -2.08577,-2.9346 -8.254313,-2.72416 -14.726468,-12.02371 -12.780615,-18.36387 0.983027,-3.203 0.896609,-3.37385 -2.289175,-4.52585 -7.456256,-2.696215 -10.647372,-10.989114 -6.33716,-16.468661 3.952397,-5.024658 8.075762,-2.047763 4.684715,3.382166 -0.898959,1.439461 -0.94835,2.456538 -0.178557,3.676912 1.076221,1.706165 6.151061,3.909597 7.014884,3.045774 0.747068,-0.747068 -7.016293,-18.047268 -8.288973,-18.471495 -0.632743,-0.210914 -1.297639,0.654954 -1.477546,1.924152 -0.209012,1.474526 -1.111567,2.419349 -2.500001,2.617079 -1.358981,0.193536 -2.556871,1.410911 -3.197981,3.25 C 30.565326,84.676751 29.704291,86 29.215711,86 c -0.488581,0 -0.84949,1.9125 -0.80202,4.25 0.07709,3.796245 -0.155378,4.241365 -2.1774,4.169126 -1.863856,-0.06659 -2.139367,0.286685 -1.559765,2 0.387169,1.144481 0.730838,3.205874 0.763709,4.580874 0.04807,2.01087 -0.380454,2.45339 -2.190235,2.26179 -1.682753,-0.17816 -2.25,0.28152 -2.25,1.82332 0,3.04083 -3.023609,2.03864 -5.225856,-1.73213 C 13.405176,99.296748 11.039498,88.071271 11.017364,80.781385 11.00319,76.113286 10.724448,75.168509 9.5,75.638374 5.5011004,77.172895 10.00157,58.271158 14.7706,53.502127 18.11548,50.157248 20.02502,50.343522 25,54.5 c 4.390315,3.668004 6.096727,4.526401 4.017337,2.02089 -0.922658,-1.111735 -0.958065,-2.252161 -0.142554,-4.591538 0.865923,-2.483988 0.786189,-3.411237 -0.394892,-4.592318 -2.059678,-2.059678 -1.84727,-3.966304 0.635609,-5.70538 3.121234,-2.186198 6.3845,-0.657301 6.3845,2.99125 0,2.041608 0.665501,3.167489 2.291727,3.877096 1.260449,0.55 2.566152,2.089873 2.901562,3.42194 l 0.609835,2.42194 1.848438,-2.282724 C 44.377825,50.546785 45,48.156789 45,44.960645 45,40.000023 46.749546,37 49.64247,37 c 1.648052,0 20.845373,12.362295 21.934898,14.125185 0.373375,0.604132 0.15928,1.419541 -0.475764,1.81202 -0.721515,0.445921 0.736346,1.998202 3.886484,4.138197 C 81.171988,61.276335 88,69.44105 88,72.634623 88,75.177786 86.146281,75.746281 84.2,73.8 83.266667,72.866667 83,73.088889 83,74.8 c 0,1.966233 -0.993217,2.674755 -3.25,2.318421 -0.4125,-0.06513 -0.75,0.530021 -0.75,1.322562 0,4.232031 -4.409206,2.462034 -8.47234,-3.401069 -2.150105,-3.102603 -3.287455,-3.93354 -4.749084,-3.469637 -1.163925,0.369416 -2.706497,-0.100058 -3.911289,-1.190381 -1.602352,-1.450108 -2.149933,-1.5406 -2.814608,-0.465133 C 58.598807,70.649143 57.05128,71.25 55.613729,71.25 54.062686,71.25 53,71.809046 53,72.625 53,73.494369 51.866162,74 49.916667,74 c -1.695834,0 -2.933334,0.339052 -2.75,0.753449 C 47.35,75.167846 48.85,78.762301 50.5,82.741127 c 1.65,3.978825 3.327126,7.239773 3.726947,7.246551 0.399821,0.0068 1.476154,-1.131112 2.391851,-2.528642 C 58.712957,84.262945 57.18878,80 53.951888,80 c -1.596449,0 -2.015413,-0.532148 -1.771439,-2.25 0.343517,-2.418746 3.965086,-3.432257 8.340454,-2.33411 4.76892,1.196923 5.051872,10.043639 0.506071,15.822689 l -1.942924,2.470028 3.821444,1.144932 c 5.596374,1.676715 9.610383,7.819461 9.54552,14.607761 -0.02938,3.07527 -0.709429,6.06955 -1.69952,7.4831 -1.620532,2.31364 -1.578566,2.39208 2.308741,4.31537 7.014318,3.4704 10.059554,10.12444 7.469933,16.32227 -1.13236,2.71012 -1.236154,4.09881 -0.420294,5.62326 0.595878,1.11341 0.880031,3.41012 0.63145,5.10381 -0.294421,2.00602 0.610993,5.62602 2.597475,10.38516 2.494997,5.97742 3.454739,7.30573 5.278595,7.30573 1.226035,0 3.564469,1.12359 5.196519,2.49687 4.497088,3.78405 7.970627,2.59404 16.726547,-5.73041 4.01147,-3.81379 9.10841,-8.26881 11.32655,-9.90005 C 126.31824,149.59294 136.85604,145 139.91528,145 c 1.11721,0 3.12347,-1.62553 4.6816,-3.79318 1.49962,-2.08625 5.32374,-5.57375 8.49803,-7.75 4.88523,-3.34924 5.94214,-4.62796 6.88308,-8.32761 0.6114,-2.40394 2.5205,-7.35394 4.24244,-11 1.72195,-3.64607 3.2124,-7.35552 3.31213,-8.24323 0.29005,-2.58186 1.19919,-3.58677 8.55413,-9.455148 9.96809,-7.953381 16.00543,-10.057448 21.0744,-7.344618 1.64567,0.880735 2.39728,0.691566 3.97322,-1 2.34751,-2.519761 8.97093,-2.869254 10.87592,-0.573883 0.95467,1.150304 1.58244,1.240685 2.62245,0.377555 C 216.43575,86.393473 216.37177,85 214.5,85 c -0.825,0 -1.5,-0.35964 -1.5,-0.799199 0,-0.43956 -1.57044,-0.61586 -3.48986,-0.391778 -4.57047,0.533576 -5.419,-1.603453 -2.5604,-6.448404 1.75268,-2.970586 2.04461,-4.613073 1.55666,-8.758435 -0.39589,-3.36324 -0.0548,-6.976713 1.00088,-10.602184 3.09576,-10.631937 3.09872,-10.180901 -0.0591,-8.980292 -1.53618,0.584056 -3.50296,0.788191 -4.37061,0.453632 -1.25168,-0.482634 -0.85456,-1.208498 1.92245,-3.513913 1.925,-1.598094 2.96406,-2.917731 2.30902,-2.932526 -0.65504,-0.0148 -1.44116,0.377883 -1.74692,0.872619 -0.99792,1.614662 -10.28193,3.356652 -12.19213,2.28765 -1.5572,-0.871456 -1.38637,-1.206593 1.51421,-2.970544 l 3.26945,-1.988268 -4.57682,0.515874 c -6.27098,0.70683 -5.78201,-0.99908 0.88912,-3.101969 3.00626,-0.94764 5.78008,-2.231292 6.16404,-2.852561 0.4768,-0.771476 0.0913,-0.894681 -1.21593,-0.388629 -5.69664,2.20524 -19.30741,1.418823 -20.16879,-1.165334 -0.28698,-0.860924 1.05409,-1.259049 4.42142,-1.312591 C 188.325,32.88088 192.3,32.215283 194.5,31.444043 l 4,-1.402254 -6.66168,0.497907 C 185.43721,31.018127 180,29.77795 180,27.839485 c 0,-0.461717 3.2625,-0.901056 7.25,-0.976309 l 7.25,-0.136824 -6.12791,-0.699821 c -6.94563,-0.793205 -12.73378,-3.687547 -13.15928,-6.580239 -0.15796,-1.073839 -1.62046,-2.717623 -3.25,-3.652853 -3.59612,-2.063891 -3.75084,-3.477264 -0.54076,-4.939876 1.77281,-0.807745 3.28711,-0.801998 5.64922,0.02144 4.94312,1.72318 5.84919,1.258715 1.75922,-0.9017952 C 175.23827,8.0756343 171,3.2706285 171,1.0956295 c 0,-1.57527671 6.05111,-1.35185404 7.92126,0.2924737 3.85499,3.3894869 12.33311,6.8246175 18.14405,7.3515358 l 6.11148,0.5541696 -2.61388,-2.820432 C 195.37007,0.87021581 199.38709,-0.54091063 207.02369,4.2037884 212.20229,7.4213132 212.59695,7.5 223.55601,7.5 c 12.78114,0 15.44354,1.1903117 15.44453,6.904988 l 5.3e-4,3.095012 7.96232,0.02701 c 6.46875,0.02195 8.48512,0.416264 10.74946,2.102149 3.45817,2.574737 5.13467,6.807763 3.63323,9.173607 -0.90568,1.427088 -0.34249,2.126909 3.5384,4.396775 7.02091,4.106414 10.23751,5.526731 14.61552,6.453609 3.41314,0.722602 4.04795,1.266085 4.3268,3.704341 0.45163,3.949125 -1.50744,8.198721 -5.20651,11.293866 -4.80627,4.021585 -5.10841,5.944528 -1.62508,10.342596 1.65264,2.086619 3.00479,4.022574 3.00479,4.302123 0,0.279549 -1.36514,0.98416 -3.03364,1.565802 -2.66137,0.927761 -2.88791,1.290872 -1.84611,2.95907 0.95403,1.527632 0.86232,2.36584 -0.46636,4.262799 C 273.74425,79.382445 273,81.887742 273,83.651078 273,88.64555 270.88447,90 263.08356,90 c -7.60655,0 -10.85217,2.002969 -9.60631,5.928336 0.7055,2.222813 1.11106,2.351694 6.61839,2.103232 2.50579,-0.113047 4.47597,0.571436 6.5,2.258242 1.5974,1.33125 4.47936,2.9585 6.40436,3.6161 1.925,0.65761 8,3.58279 13.5,6.50041 l 10,5.30477 0.30208,5.71724 c 0.29393,5.5631 0.40177,5.75684 4,7.18616 2.03385,0.8079 5.46097,2.4214 7.6158,3.58555 l 3.91788,2.11664 2.32715,-2.90834 c 1.27994,-1.59959 2.32939,-3.63736 2.33212,-4.52838 0.006,-1.82062 -15.85308,-12.30426 -20.30172,-13.4208 -2.12263,-0.53274 -2.72699,-1.21799 -2.49689,-2.83102 0.26633,-1.86705 0.91701,-2.11258 5.30358,-2.0013 2.75,0.0698 6.575,0.29476 8.5,0.5 2.97823,0.31753 3.54644,0.0469 3.81149,-1.81535 0.44099,-3.09828 -3.14183,-6.30833 -7.06149,-6.3268 -1.7875,-0.008 -3.925,-0.46666 -4.75,-1.018299 -1.29034,-0.862794 -1.22045,-1.175142 0.5,-2.234687 6.05395,-3.72834 13.01528,-3.637975 17.53777,0.227655 1.91732,1.638837 4.66403,2.977491 6.15553,3.000001 1.48131,0.0224 3.28131,0.87608 4,1.89718 0.71868,1.0211 2.31968,2.17657 3.55776,2.56773 3.73323,1.17944 4.56438,4.07787 3.81561,13.30601 -0.62837,7.74434 -0.49249,8.72408 1.74527,12.58395 2.9714,5.12532 4.91162,15.41946 3.7015,19.6389 -0.47934,1.67135 -1.80345,4.3476 -2.94248,5.94722 -1.13903,1.59961 -2.07096,3.3711 -2.07096,3.93663 0,2.00428 -4.69211,2.55145 -20.75103,2.41987 -15.79724,-0.12943 -16.39599,-0.21167 -21.44218,-2.945 -2.85513,-1.54652 -6.79216,-4.4417 -8.74897,-6.43375 -2.84658,-2.89785 -4.57395,-3.74991 -8.64082,-4.26228 -4.62388,-0.58256 -5.48195,-0.35438 -9.5,2.5262 -7.19154,5.1557 -11.19549,8.93553 -14.08272,13.29446 -1.49581,2.25826 -4.81107,5.67138 -7.36725,7.58472 -2.55618,1.91334 -7.41947,6.42362 -10.80731,10.02285 -3.38785,3.59923 -7.4966,7.49109 -9.13056,8.64859 l -2.97084,2.10453 4.22084,4.57907 c 2.32146,2.51849 4.22084,5.16156 4.22084,5.87349 0,1.45072 14.33076,15.68398 20.5,20.36053 2.2,1.66769 6.37026,4.31337 9.26725,5.87927 3.43136,1.85475 6.3353,4.44405 8.33152,7.42879 2.71192,4.05488 3.0192,5.23722 2.67245,10.28302 -0.30343,4.41536 -1.14163,6.80017 -3.71614,10.57291 -5.22285,7.65371 -8.691,9.51269 -18.73009,10.0396 -7.48894,0.39307 -9.19767,0.85757 -14.1704,3.85203 C 226.93802,277.6137 221.22003,279 209.0286,279 c -6.34521,0 -13.00358,0.62234 -16.5685,1.5486 -14.72703,3.82651 -16.59263,4.61837 -20.78583,8.82263 -2.29585,2.3019 -6.19927,5.47842 -8.67427,7.05892 -2.475,1.58051 -4.85986,3.48029 -5.29969,4.22175 -0.43983,0.74145 -1.68344,1.3481 -2.76357,1.3481 -5.06457,0 -10.44155,5.01746 -12.54559,11.70676 -2.13784,6.79674 -9.73037,15.69039 -11.34848,13.29324 -1.65761,-2.45567 -4.01509,-11.44278 -4.68637,-17.86518 -0.76043,-7.27547 0.75652,-11.63179 7.18976,-20.64717 6.70469,-9.39578 6.0922,-11.18287 -1.39722,-4.07672 C 121.37167,294.63656 112.34185,300 105.90325,300 c -1.19571,0 -6.064027,3.86332 -11.872048,9.42122 -5.414859,5.18167 -13.010349,11.72335 -16.878865,14.53707 -8.317959,6.04998 -15.730441,13.97498 -18.277914,19.54171 -1.111564,2.42899 -1.840134,6.35652 -1.855032,10 -0.02078,5.0823 -0.570269,6.90506 -3.592608,11.91736 -1.962441,3.25454 -5.338645,9.60955 -7.502674,14.12223 l -3.934599,8.20488 0.384997,12.6835 c 0.366312,12.06794 0.281634,12.74854 -1.744755,14.02364 -3.870397,2.43543 -6.206341,2.67807 -7.822471,0.81253 z m 4.600479,-2.11489 c 0.289186,-0.46792 -0.556153,-2.31725 -1.878531,-4.10963 -1.322379,-1.79239 -3.596993,-6.23811 -5.054699,-9.8794 -2.321065,-5.79791 -2.635727,-7.9276 -2.532492,-17.14037 0.06483,-5.78592 0.543664,-12.31985 1.064065,-14.51985 2.43886,-10.3103 0.372659,-20.38622 -3.672081,-17.90707 -3.096937,1.89822 -3.642223,8.01856 -1.36171,15.28396 1.620054,5.16126 2.027847,9.19029 2.028477,20.04152 7.59e-4,13.07577 0.114854,13.8227 3.06349,20.05563 1.684485,3.56072 3.53923,7.04822 4.121655,7.75 1.20998,1.45793 3.444477,1.68299 4.221826,0.42521 z m 3.474829,-8.13334 c -0.01214,-3.84124 -0.402927,-7.21946 -0.868415,-7.50715 -1.328259,-0.82091 -6.015222,1.29941 -6.00479,2.71649 0.01,1.35312 5.730408,11.77475 6.463175,11.77475 0.237657,0 0.422171,-3.14284 0.41003,-6.98409 z M 38.75,393.73967 c 1.357452,-1.06919 1.715496,-3.74313 0.5,-3.73409 -0.4125,0.003 -2.393049,0.46194 -4.401221,1.01973 -2.937916,0.81602 -3.550543,1.39914 -3.135877,2.98483 0.407357,1.55773 1.067676,1.83902 3.151221,1.34238 1.449732,-0.34556 3.198377,-1.07135 3.885877,-1.61285 z M 37,387.82008 c 0,-1.296 -5.255845,-0.59457 -5.6998,0.76068 -0.221224,0.67532 0.781489,0.9141 2.672881,0.6365 C 35.637886,388.97292 37,388.34419 37,387.82008 Z m 4.393011,-3.40187 c 0.883587,-2.30259 0.915382,-2.26973 -2.886438,-2.98295 C 34.120742,380.61247 30,381.59536 30,383.46426 c 0,0.98215 1.478836,1.54277 4.75,1.8007 2.6125,0.206 5.039355,0.45566 5.393011,0.55479 0.353656,0.0991 0.916156,-0.53155 1.25,-1.40154 z M 43,380.15829 C 43,379.0952 36.1232,377 32.63398,377 30.944649,377 30,377.54479 30,378.51905 c 0,1.07457 0.658359,1.3552 2.25,0.95906 1.711886,-0.42607 8.030996,0.42938 10.5,1.42144 0.1375,0.0553 0.25,-0.27832 0.25,-0.74126 z m 2,-4.07673 c 0,-4.37207 -12.895005,-8.40351 -14.393011,-4.49977 -1.031722,2.68862 -0.690505,3.41522 1.643011,3.49869 1.2375,0.0443 4.275,0.66049 6.75,1.36939 6.17545,1.76881 6,1.77958 6,-0.36831 z M 49.964565,365.797 C 50.027154,364.5553 42.668746,363.00925 37,363.07307 l -5.5,0.0619 4.698906,1.26494 c 2.584398,0.69572 6.184398,2.41714 8,3.82537 L 47.5,370.7857 l 1.214565,-2.14286 c 0.66801,-1.17857 1.23051,-2.45921 1.25,-2.84586 z M 42,369.44897 C 42,368.58248 35.285138,366 33.032119,366 c -3.953682,0 -1.960819,1.64898 3.217881,2.66261 2.8875,0.56517 5.3625,1.09729 5.5,1.18249 0.1375,0.0852 0.25,-0.0931 0.25,-0.39613 z m 10,-7.21434 c 0,-0.42095 -4.1072,-1.81745 -9.127111,-3.10334 -7.520545,-1.92645 -9.278062,-2.09977 -9.984687,-0.98464 -1.578593,2.49119 -0.922001,2.85281 5.361798,2.95303 3.4375,0.0548 7.375,0.45997 8.75,0.90032 3.368816,1.07888 5,1.15543 5,0.23463 z m -5.545641,-8.59645 C 38.833198,346.23869 35.773255,344.5158 32.942853,346.03058 30.859798,347.1454 30.365258,349.48967 32,350.5 c 0.55,0.33992 1,1.4404 1,2.44552 0,1.1957 0.950706,2.01465 2.75,2.36889 1.5125,0.29777 5.675,1.44178 9.25,2.54225 3.575,1.10047 6.839022,2.03291 7.253382,2.0721 0.41436,0.0392 -2.1952,-2.79158 -5.799023,-6.29058 z M 55,356.42308 c 0,-1.16245 -6.109417,-6.647 -6.721969,-6.03444 -0.347725,0.34772 0.656659,1.97753 2.231963,3.62179 C 53.179749,356.79706 55,357.77514 55,356.42308 Z m 2.556892,-15.1995 c 4.411638,-6.85699 10.563556,-12.95005 21.81085,-21.60218 11.874053,-9.13427 18.927817,-16.29279 23.522078,-23.8714 2.59839,-4.28626 4.44766,-4.94281 3.52082,-1.25 -0.80244,3.1972 1.10926,3.29535 6.8792,0.35319 5.89775,-3.00734 18.67923,-12.45349 21.93326,-16.20978 2.24558,-2.59219 2.72782,-4.11274 2.75,-8.67117 0.0208,-4.27895 0.48131,-5.91684 2.03833,-7.25 1.10629,-0.94723 2.34379,-1.72575 2.75,-1.73004 1.22729,-0.013 3.13088,-4.94072 2.14417,-5.55054 C 143.41292,254.51913 143.88386,251 145.5,251 c 1.73637,0 1.87663,-0.88556 0.47517,-3 -0.99714,-1.50442 -1.93941,-0.68409 -11.12256,9.68311 -2.03648,2.29906 -8.63975,4.80573 -15.35261,5.82802 l -4,0.60916 3,-2.56203 c 1.65,-1.40911 3.9,-2.83358 5,-3.16548 2.12051,-0.63982 12.5,-10.27915 12.5,-11.60862 C 136,246.35287 132.88723,246 129.08274,246 h -6.91726 l -3.90196,5.75 C 106.26787,269.427 102.51288,274.23362 98.687998,276.80787 94.385647,279.70346 87.933539,282 84.100737,282 c -2.683383,0 -11.783083,4.47803 -14.956714,7.36031 -1.295787,1.17683 -4.345113,6.18969 -6.776279,11.13969 -2.431167,4.95 -5.194162,10.23011 -6.13999,11.73357 -1.666469,2.64897 -1.650182,2.78225 0.526279,4.3067 3.165584,2.21726 2.800576,4.53456 -1.341008,8.51356 -7.081618,6.80363 -7.433222,7.6998 -5.798007,14.77796 0.795423,3.44306 1.193866,6.66842 0.88543,7.16749 -0.308437,0.49906 0.224847,1.82494 1.185075,2.94641 1.721899,2.01103 1.762162,1.98384 2.932472,-1.97975 0.652632,-2.21033 1.975135,-5.24439 2.938897,-6.74236 z M 63,305.55576 c 0,-2.89613 4.69943,-6.7116 13.5,-10.96063 8.943355,-4.31798 12.951121,-5.00947 8.386032,-1.44691 -1.312318,1.02412 -4.258273,2.81939 -6.546566,3.98948 -2.288294,1.1701 -6.459923,3.86779 -9.270287,5.99487 C 63.355882,307.45681 63,307.5989 63,305.55576 Z m -15.840408,42.18738 c 1.37572,-0.50648 1.508088,-1.26372 0.773857,-4.42706 -2.000112,-8.61723 -1.324647,-11.56229 3.991713,-17.40412 l 4.925162,-5.41196 -2.745067,-3 c -3.876,-4.23596 -5.602534,-7.24088 -10.043526,-17.4801 -4.934457,-11.37696 -11.397335,-22.1673 -11.860094,-19.80147 -0.18487,0.94514 1.205394,5.55764 3.089475,10.25 3.6783,9.16092 3.300081,10.15662 -2.291112,6.03157 -6.840059,-5.04644 -6.840059,-2.22128 0,4.40624 2.75,2.66455 5,5.10513 5,5.42351 0,0.31838 -3.0375,0.71193 -6.75,0.87456 L 24.5,307.5 l 4.75,2.44927 c 5.530012,2.85146 6.027356,4.61126 1.579308,5.58822 l -3.170692,0.6964 2.420692,1.86082 c 1.331381,1.02345 2.983192,1.87082 3.670692,1.88305 2.217532,0.0394 1.314686,1.46382 -2.512379,3.96363 -3.734391,2.43928 -3.73546,2.442 -1.237621,3.15032 4.106904,1.1646 6,0.99359 6,-0.54202 0,-0.79767 0.7875,-1.89668 1.75,-2.44224 1.64274,-0.93114 1.62973,-1.08078 -0.212253,-2.44148 -1.669263,-1.23311 -1.762965,-1.68967 -0.627555,-3.05776 C 37.644275,317.7237 38.864789,317 39.622445,317 41.220936,317 41.46203,315.40358 40,314.5 c -1.101234,-0.6806 -1.366611,-4.80006 -0.373216,-5.79345 1.156256,-1.15626 6.159839,2.21205 8.198722,5.51921 3.545707,5.75129 3.639123,8.12527 0.528583,13.43301 -2.289505,3.90674 -2.825931,6.02018 -2.838541,11.18343 L 45.5,345.20855 41.445894,340.60428 C 39.216135,338.07192 36.90178,336 36.302882,336 c -0.937761,0 -2.833236,3.09744 -2.076421,3.39313 2.079188,0.81234 4.223936,2.64365 4.043852,3.45287 -0.126327,0.56767 0.589123,1.292 1.589889,1.60963 1.000766,0.31763 2.422261,1.70364 3.158877,3.08002 0.736617,1.37638 1.596167,2.1236 1.910112,1.66049 0.313945,-0.46311 1.317625,-1.11696 2.230401,-1.453 z m -0.580248,-20.30141 c 3.213235,-5.94553 2.885834,-8.8005 -1.571018,-13.69944 -2.2492,-2.47231 -2.956661,-2.82871 -2.979013,-1.50076 -0.01612,0.95784 0.870687,2.30358 1.970687,2.99054 2.635526,1.64592 2.53507,2.76429 -0.25,2.78324 -1.2375,0.008 -2.922808,0.44066 -3.745129,0.96052 -1.283074,0.81114 -1.212158,1.16364 0.5,2.48535 1.982879,1.5307 1.981314,1.55188 -0.254871,3.44978 C 37.475804,327.26548 37.416359,328 40,328 c 2.402857,0 2.578544,1.70323 0.42154,4.0867 -1.441273,1.59259 -1.421665,1.98348 0.225612,4.49754 l 1.804072,2.75336 0.697201,-3.4188 c 0.383461,-1.88034 1.927374,-5.69502 3.430919,-8.47707 z m -8.763607,3.82716 c 0.293773,-2.0569 0.102468,-2.13634 -2.75,-1.14196 -3.220829,1.12279 -3.91555,2.35567 -1.815737,3.2223 2.372576,0.9792 4.251004,0.12331 4.565737,-2.08034 z M 138.63967,317.7299 c 0.82929,-1.60367 1.36212,-3.01456 1.18407,-3.13532 -0.17806,-0.12075 -2.056,-0.72555 -4.1732,-1.34399 l -3.84946,-1.12444 0.65278,3.68693 c 1.19841,6.76871 1.54744,7.43073 3.19617,6.0624 0.81502,-0.6764 2.16035,-2.54191 2.98964,-4.14558 z m -7.95656,0.0826 c -0.31922,-0.79773 -0.55618,-0.56078 -0.60416,0.60417 -0.0434,1.05416 0.19292,1.64479 0.52522,1.3125 0.33229,-0.33229 0.36781,-1.1948 0.0789,-1.91667 z m 4.44363,-24.06428 c 1.73456,-3.43652 4.21379,-7.63828 5.5094,-9.33724 3.8833,-5.09223 4.67668,-8.58717 3.37391,-14.86257 C 142.05794,260.14514 140,262.76199 140,274.64753 c 0,8.16053 -0.49056,9.50172 -6.04609,16.53 -4.20936,5.32524 -6.42145,14.31479 -5.24689,21.32247 0.63467,3.78656 0.73969,3.5597 1.96822,-4.25178 0.81513,-5.18296 2.47063,-10.57548 4.4515,-14.5 z m 6.53693,16.68587 C 142.3302,308.69714 136.48608,302 134.30383,302 c -0.71711,0 -1.37133,1.125 -1.45383,2.5 -0.0825,1.375 -0.195,3.02235 -0.25,3.66078 -0.055,0.63843 1.475,1.72919 3.4,2.42392 4.65557,1.68019 4.96427,1.67198 5.66367,-0.15061 z m -2.12323,-8.39267 c -2.126,-2.17722 -4.24852,-3.72183 -4.71673,-3.43247 -0.79618,0.49207 6.6468,7.39105 7.97385,7.39105 0.33459,0 -1.13112,-1.78136 -3.25712,-3.95858 z m 4.39632,-2.62319 C 140.60957,295.85687 136,293.45707 136,295.28626 c 0,0.73569 1.4625,2.40147 3.25,3.70172 1.7875,1.30025 3.63413,3.00325 4.10362,3.78443 0.61277,1.01957 1.15925,1.11472 1.93676,0.33721 0.77751,-0.77751 0.39556,-1.81909 -1.35362,-3.69139 z m 5.54023,-6.45143 c -3.4329,-4.95368 -7.40287,-7.70477 -8.517,-5.90207 -0.51341,0.83073 1.18726,3.51672 4.8758,7.70068 4.87456,5.52928 5.71023,6.12166 5.99433,4.24915 0.18156,-1.19671 -0.87734,-3.9182 -2.35313,-6.04776 z m 3.11984,-0.39179 c -3.583,-6.11392 -7.59541,-10.69392 -8.74578,-9.98295 -0.53165,0.32858 1.09431,2.68783 3.61325,5.24278 2.51894,2.55495 5.12185,6.14412 5.78424,7.97593 0.66239,1.83182 1.36685,2.84305 1.56547,2.24719 0.19862,-0.59586 -0.79911,-3.06319 -2.21718,-5.48295 z m 8.89715,3.05305 c 1.77172,-1.29551 1.57345,-1.71203 -3.55887,-7.47674 -2.98931,-3.35764 -6.12248,-6.11527 -6.9626,-6.12806 -0.84013,-0.0128 -2.64013,-0.76932 -4,-1.68116 -2.12484,-1.42478 -2.03925,-1.17871 0.60867,1.75 3.38079,3.73929 9.41882,12.76499 9.41882,14.07934 0,1.27442 2.40582,0.98352 4.49398,-0.54338 z m -20.27176,-2.85028 c -1.19166,-1.19167 -2.46791,-1.86542 -2.8361,-1.49723 -0.3682,0.36819 0.4068,1.54196 1.72222,2.60837 3.10249,2.51519 3.92236,1.69734 1.11388,-1.11114 z M 166,291.3537 c 0,-0.35546 -2.025,-2.81118 -4.5,-5.45715 -2.475,-2.64598 -4.5,-5.5317 -4.5,-6.41273 0,-0.88102 -0.45,-1.32374 -1,-0.98382 -1.89646,1.17208 -0.98558,3.29974 3.59267,8.39185 4.1687,4.6366 6.40733,6.19551 6.40733,4.46185 z m 3.7192,-3.1037 c -0.70866,-1.33263 -8.04305,-13.7371 -8.36203,-14.1425 -0.16986,-0.21588 -0.98286,0.16689 -1.80667,0.85059 -1.32882,1.10282 -1.32944,1.56872 -0.005,4.129 2.16934,4.19504 7.42844,9.91291 9.11757,9.91291 0.80048,0 1.27595,-0.3375 1.05659,-0.75 z m 1.36521,-5.09227 c -0.59269,-1.10746 -1.41665,-4.96773 -1.83102,-8.57837 l -0.75339,-6.5648 -2.95342,2.36078 -2.95341,2.36079 4.34028,6.66173 c 2.38716,3.66395 4.54016,6.46186 4.78444,6.21758 0.24428,-0.24428 -0.0408,-1.35025 -0.63348,-2.45771 z m 14.80642,-2.82218 c 6.01097,-1.76627 12.39255,-2.69944 22.5,-3.29016 15.2134,-0.88912 19.94056,-2.11326 27.05033,-7.00491 3.7287,-2.56541 5.36461,-3.04048 10.46996,-3.04048 5.78582,0 6.07757,-0.12042 6.66277,-2.75 1.32322,-5.94587 1.23798,-5.8652 6.27839,-5.94124 C 267.11367,258.18413 269,255.88712 269,245.95173 c 0,-4.96258 -3.10896,-8.62385 -12.89635,-15.18741 C 251.92164,227.95981 244.9,222.18453 240.5,217.93035 c -9.60973,-9.29123 -19.86246,-15.32238 -25.66122,-15.09516 -4.74991,0.18612 -8.32509,1.93036 -16.83878,8.21524 -7.63366,5.63523 -11.80889,9.93498 -15.00212,15.44957 -1.27391,2.2 -3.25708,4.79313 -4.40704,5.7625 -2.04276,1.72198 -2.04724,1.79596 -0.1947,3.21711 3.63163,2.78595 14.17692,5.49759 25.10386,6.45526 15.5397,1.36194 40.42849,9.13719 36.6747,11.45716 -0.53471,0.33047 -2.93026,-0.28767 -5.32345,-1.37363 -2.39319,-1.08596 -5.92625,-1.98002 -7.85125,-1.98679 -1.925,-0.007 -7.82402,-0.54755 -13.10893,-1.20172 -11.02649,-1.36486 -13.11631,-0.8494 -20.77487,5.12417 -7.78532,6.07245 -14.77028,10.11555 -18.5299,10.72565 -2.56931,0.41694 -3.5863,1.09177 -3.5863,2.3797 0,2.75626 2.961,5.1989 5.39908,4.45391 1.1555,-0.35308 5.25092,-0.86311 9.10092,-1.13339 8.21924,-0.57702 7.29629,0.58378 -2.47663,3.11488 -3.56214,0.92257 -7.27464,2.10448 -8.25,2.62648 -2.9783,1.59394 -1.92759,8.56601 1.10567,7.33673 0.89153,-0.3613 5.39683,-1.76642 10.01179,-3.12247 z M 200,263.13004 c 0,-3.33852 17.65283,-8.10572 30,-8.10159 7.06672,0.002 7.84423,0.30476 9.81929,3.81893 1.73391,3.08511 1.10955,3.5176 -2.42051,1.67667 -2.02523,-1.05617 -5.94086,-1.51359 -12.99355,-1.51789 -9.44272,-0.006 -14.59077,1.00744 -22.65523,4.45886 -1.05099,0.44979 -1.75,0.31599 -1.75,-0.33498 z m 35.04775,-22.07937 c -0.79874,-0.50529 -1.81124,-0.69684 -2.25,-0.42567 C 232.35899,240.89617 232,240.5665 232,239.89235 c 0,-0.67413 -0.28417,-0.94152 -0.63148,-0.5942 -0.34732,0.34732 -1.49544,0.16911 -2.55139,-0.39602 -1.05595,-0.56513 -10.48648,-3.02227 -20.95674,-5.46032 -10.47026,-2.43806 -19.51138,-4.72611 -20.09138,-5.08457 -1.27027,-0.78507 2.45706,-2.84709 6.8499,-3.78948 5.76849,-1.23749 22.19336,3.77332 33.4028,10.19036 5.48806,3.14174 9.97829,6.05642 9.97829,6.47707 0,1.0164 -1.16942,0.94331 -2.95225,-0.18452 z m -81.24632,36.15247 c 1.50371,-1.53828 5.20104,-4.62826 8.21629,-6.86662 9.23382,-6.8547 9.48559,-7.31843 9.45859,-17.42089 -0.0162,-6.04802 -0.44664,-9.26838 -1.35535,-10.13932 -1.10267,-1.05683 -1.20773,-0.6893 -0.61093,2.13728 1.3721,6.49859 0.81094,12.74302 -1.51747,16.88587 -2.42808,4.32017 -10.47609,11.63777 -11.85925,10.78293 -1.2385,-0.76543 -2.31166,-9.85335 -1.24219,-10.51936 1.20509,-0.75047 1.59445,-5.12719 0.65058,-7.31303 -1.02108,-2.36463 0.0546,-4.83168 2.37089,-5.43739 1.04638,-0.27364 2.12698,-1.35591 2.40134,-2.40506 0.27436,-1.04915 1.16718,-1.90755 1.98404,-1.90755 0.81687,0 1.76757,-1.125 2.11267,-2.5 0.34511,-1.375 1.06889,-2.5 1.60841,-2.5 C 166.59409,240 167,235.9138 167,230.125 167,219.68744 166.27587,214 164.94696,214 c -1.40156,0 -2.26909,11.04376 -1.15317,14.67978 1.4921,4.8617 -0.70516,3.92757 -3.29835,-1.40224 -1.10251,-2.266 -2.40341,-4.49295 -2.89088,-4.94877 -1.5292,-1.42991 0.26004,8.53495 2.01281,11.21001 1.99105,3.03874 0.84814,4.80223 -1.27004,1.95965 -0.81904,-1.09914 -2.34299,-3.12343 -3.38656,-4.49843 l -1.89741,-2.5 -0.0317,2.28984 c -0.0174,1.25941 0.89971,4.11552 2.03808,6.3469 2.4178,4.73928 1.9723,5.77606 -1.50337,3.49872 -3.46897,-2.27296 -4.06551,-2.04616 -2.1814,0.82936 2.39716,3.65852 2.0333,4.56884 -1.54048,3.85408 -3.44634,-0.68927 -3.37827,0.14122 0.35214,4.29652 1.88993,2.10519 1.88317,2.11868 -1.39876,2.78781 l -3.29789,0.67238 2.41638,1.842 2.41639,1.842 -2.16639,0.68758 c -2.02855,0.64384 -3.07121,2.53434 -1.41638,2.56812 0.4125,0.008 1.42281,0.44066 2.24513,0.96052 1.28436,0.81196 1.2192,1.14696 -0.46225,2.37647 -1.67515,1.2249 -1.76269,1.66586 -0.60712,3.05825 1.14829,1.3836 1.08207,1.92332 -0.44274,3.60821 -1.68748,1.86465 -1.69043,1.98124 -0.0501,1.98124 1.47933,0 1.64069,0.60487 1.06709,4 -0.55754,3.30003 -0.39203,4 0.94581,4 0.89188,0 2.85191,-1.25859 4.35562,-2.79686 z M 162.56927,265.75 c 1.51088,-1.7875 3.63051,-5.23839 4.71028,-7.66864 1.79313,-4.03579 1.84735,-4.90221 0.62576,-10 -1.06801,-4.45688 -1.40805,-5.02732 -1.68781,-2.83136 -0.24601,1.93105 -0.92616,2.75 -2.28392,2.75 -1.28655,0 -1.93358,0.69029 -1.93358,2.06286 0,1.36577 -0.59136,2.0027 -1.75,1.88484 -3.24192,-0.32977 -3.39357,0.0419 -1.24706,3.05643 1.88407,2.64593 1.94825,3.07737 0.53829,3.61842 -1.00041,0.38389 -1.38568,1.29219 -1.0272,2.42166 0.33782,1.06438 -0.0471,2.15476 -0.93649,2.65246 -1.79551,1.00482 -1.02534,5.30333 0.9502,5.30333 0.71196,0 2.53065,-1.4625 4.04153,-3.25 z M 187,255.10278 c 10.99669,-7.46527 12.69783,-8.35694 17.5,-9.17284 3.87369,-0.65815 3.82632,-0.68315 -1.5,-0.79196 -3.025,-0.0618 -8.67336,-0.85438 -12.55191,-1.76131 l -7.05191,-1.64896 -4.65302,3.38615 c -4.27308,3.10965 -4.6411,3.71275 -4.50708,7.38614 0.0803,2.2 -0.20135,5.46518 -0.62583,7.25596 -0.76872,3.24307 -0.76058,3.25172 2.05899,2.18656 1.55692,-0.58817 6.65576,-3.66605 11.33076,-6.83974 z m -68.12524,-10.47403 2.62524,-2.87124 -3.18659,1.61413 c -3.85515,1.95279 -4.71427,3.18424 -3.7856,5.42625 0.59404,1.43413 0.78507,1.46595 1.21337,0.20211 0.27959,-0.825 1.6897,-2.79206 3.13358,-4.37125 z m 58.90044,-1.31304 2.68428,-2.68429 -2.58415,-1.06571 c -1.42128,-0.58614 -3.32467,-1.68331 -4.22974,-2.43815 -1.46433,-1.22128 -1.64409,-1.05606 -1.63194,1.5 0.0186,3.91858 1.02513,7.37244 2.14844,7.37244 0.51085,0 2.13675,-1.20793 3.61311,-2.68429 z m -31.13547,-0.42387 c 1.89572,-0.10378 2.08028,-0.56047 1.61833,-4.00449 -0.57371,-4.27735 0.51068,-4.96622 3.36456,-2.13735 1.68267,1.66792 1.72577,1.6562 0.91904,-0.25 -2.52006,-5.95459 -1.2818,-11.18908 2.00214,-8.46365 1.73251,1.43786 1.7359,1.41462 0.4428,-3.04295 -2.06354,-7.11345 1.34853,-12.04901 4.35841,-6.30445 l 1.40888,2.68895 0.41273,-4.32786 c 0.39457,-4.13747 0.26022,-4.39158 -3.05421,-5.77643 -1.90681,-0.79672 -4.73716,-1.26215 -6.28967,-1.03429 -3.02864,0.44451 -3.8472,-0.63222 -1.24095,-1.63233 2.58763,-0.99297 6.75184,-0.62825 9.36783,0.82046 1.34729,0.74612 3.04052,1.12983 3.76273,0.85269 C 165.33351,209.65804 168,211.75057 168,213.64486 168,215.05694 178.8466,226 180.24624,226 180.66081,226 181,225.36487 181,224.58859 c 0,-1.97048 11.56559,-12.35937 20.41446,-18.33747 7.96275,-5.37945 13.44998,-6.89398 20.91903,-5.77387 l 4.16651,0.62485 -5.02395,-3.00309 c -4.71983,-2.82129 -16.02629,-5.71686 -12.47605,-3.1951 1.80668,1.2833 2.58633,1.22131 -13.81322,1.09834 -7.32227,-0.0549 -14.33639,-0.48883 -15.58693,-0.96429 -1.25054,-0.47545 -3.79612,-2.4785 -5.65683,-4.45121 C 172.08231,188.61404 169.97444,187 169.25887,187 c -0.71557,0 -4.66655,0.99015 -8.77995,2.20033 -6.13776,1.80576 -7.48286,2.5679 -7.50088,4.25 C 152.89554,201.14997 144.00358,210 136.34996,210 c -4.9921,0 -5.43067,1.16926 -2.80003,7.46525 1.21141,2.89933 1.28949,4.02331 0.3575,5.14629 -1.46613,1.76658 -0.43623,3.05813 1.3184,1.65335 0.7008,-0.56106 2.28667,-1.33051 3.52417,-1.70989 1.66971,-0.51188 2.25,-0.28554 2.25,0.87761 0,0.86207 -0.50221,1.56739 -1.11602,1.56739 -2.20353,0 -10.49142,6.92547 -13.79798,11.52977 -3.22994,4.49762 -3.27128,4.66511 -0.97916,3.96717 3.17949,-0.96815 14.77841,-6.64487 19.34979,-9.47013 2.00671,-1.24022 3.86331,-2.04021 4.12576,-1.77775 0.50397,0.50396 -8.35289,6.39626 -17.58239,11.69724 l -5.5,3.15893 9.5,-0.54812 c 5.225,-0.30147 10.46288,-0.60084 11.63973,-0.66527 z M 177,211.04002 c 3.025,-1.71092 6.175,-3.99159 7,-5.06816 3.76323,-4.91079 17.92834,-8.79023 22.58356,-6.18503 1.59376,0.89191 1.29337,1.13063 -2.11283,1.6791 -9.36536,1.50803 -13.37077,2.91557 -19.97874,7.02077 -3.8544,2.39455 -8.3544,4.64855 -10,5.0089 -2.25355,0.49347 -1.63455,-0.11258 2.50801,-2.45558 z m -6.25,-9.76849 c -6.48085,-0.67792 -4.10625,-2.31047 3,-2.06252 3.7125,0.12954 8.775,-0.12019 11.25,-0.55496 l 4.5,-0.79049 -4.3592,2.06822 c -4.20135,1.99333 -6.2867,2.18747 -14.3908,1.33975 z m 5.48422,29.65678 c 2.31678,-2.17909 2.87438,-3.22976 1.91888,-3.61564 -0.7408,-0.29916 -2.82521,-1.8419 -4.63202,-3.4283 C 171.71427,222.29796 169.95788,221 169.61798,221 169.27809,221 169,223.925 169,227.5 c 0,5.81611 0.20877,6.5 1.98422,6.5 1.09133,0 3.45383,-1.38226 5.25,-3.07169 z M 110,220.62244 c 0,-0.75765 -0.69407,-1.95358 -1.54238,-2.65761 -1.90085,-1.57757 -4.02869,0.10461 -3.12179,2.46795 0.74093,1.93082 4.66417,2.09035 4.66417,0.18966 z m -3.71561,-7.52673 c 2.20984,-3.74096 2.16353,-5.38037 -0.21273,-7.53086 -2.38391,-2.15741 -5.27576,-1.39213 -8.045575,2.12912 -2.436138,3.09705 -2.54087,4.64839 -0.454656,6.7346 2.612841,2.61284 6.756631,1.97895 8.712961,-1.33286 z m 34.86379,-6.51316 c 3.87571,-1.61937 5.89227,-3.66519 8.30497,-8.42548 2.26396,-4.46683 1.4586,-4.89006 -2.59814,-1.36537 -6.38875,5.55086 -10.77015,6.54399 -16.25379,3.68425 -3.30695,-1.72458 -4.03932,-1.43164 -3.18109,1.2724 1.82157,5.73925 7.10724,7.60055 13.72805,4.8342 z m -38.32327,-5.24079 C 103.63279,200.94829 97.596265,193 96.489558,193 c -1.760759,0 -3.818931,2.6784 -2.625129,3.41621 0.52885,0.32685 1.265575,2.3938 1.637165,4.59323 l 0.675619,3.99895 3.161394,-1.7542 c 1.738763,-0.9648 3.307603,-1.8254 3.486303,-1.91243 z m 38.67365,-2.9081 c 1.81545,-0.86149 4.76728,-3.17788 6.55963,-5.14752 3.09589,-3.40216 3.16633,-3.6488 1.40917,-4.93366 -2.34574,-1.71525 -3.97208,-1.70683 -6.75254,0.035 -1.21815,0.7631 -4.55503,1.92764 -7.41529,2.58786 -6.95266,1.60486 -8.3221,3.30731 -5.27199,6.55401 2.7131,2.88796 6.63867,3.19744 11.47102,0.90434 z m 60.9623,-4.30502 2.96086,-0.63472 -4.21661,-1.90143 c -2.31914,-1.04578 -4.71913,-2.50692 -5.33331,-3.24696 -1.40671,-1.69499 -1.07896,-1.68272 4.1282,0.15447 4.54772,1.60453 9.02123,1.9787 8.96673,0.75 -0.0589,-1.32811 -3.47722,-4.91662 -6.00813,-6.3073 -1.35223,-0.74302 -4.4836,-1.64896 -6.9586,-2.01321 -4.42045,-0.65056 -4.39087,-0.66463 1.67327,-0.79588 5.3778,-0.11639 6.59341,0.2199 9.43364,2.6098 4.79079,4.03119 12.92574,3.3668 17.7415,-1.44896 0.76433,-0.76433 1.66689,-1.11248 2.0057,-0.77368 1.01584,1.01585 -4.02004,4.32237 -9.28839,6.09869 l -4.93427,1.66369 2.29506,1.85842 c 1.26228,1.02214 2.84306,1.85843 3.51283,1.85843 2.15584,0 10.17232,-5.87742 14.87768,-10.90783 2.51516,-2.68891 6.66013,-6.38778 9.21105,-8.21971 C 246.48497,170.03082 254,161.39394 254,159.68798 c 0,-0.29924 -2.5875,-0.85632 -5.75,-1.23795 -8.83137,-1.06574 -9.2703,-2.12669 -0.94531,-2.28493 9.06808,-0.17236 10.28954,-0.62382 19.157,-7.08049 5.27769,-3.84285 8.05589,-6.82465 11.48513,-12.32682 4.14782,-6.65511 4.52467,-7.79755 4.53831,-13.75779 l 0.0149,-6.5 5,-0.31558 5,-0.31558 -8.5,-4.48229 c -4.675,-2.46527 -10.41225,-5.15352 -12.74945,-5.97389 -4.04497,-1.41982 -4.35774,-1.3878 -6.5,0.66543 -3.19565,3.06281 -8.02446,4.92191 -12.7842,4.92191 -4.59487,0 -6.74373,0.94408 -12.31921,5.41231 -7.58141,6.0758 -19.60678,3.40329 -31.43191,-6.9854 C 202.65896,104.54555 199,98.697422 199,94.698126 c 0,-1.91389 -0.78909,-2.617968 -4.01841,-3.585497 -4.45717,-1.335401 -6.51984,-0.570054 -14.48159,5.37335 -11.65305,8.698941 -11.88439,9.770211 -5.58652,25.869061 l 1.11689,2.85504 4.73482,-7.38613 c 2.60414,-4.06238 5.61889,-9.1074 6.69943,-11.21117 1.08055,-2.10377 2.10237,-3.41182 2.27071,-2.90679 0.16835,0.50504 -0.76842,2.91529 -2.0817,5.35613 -1.31328,2.44083 -3.56051,6.61968 -4.99386,9.28633 -3.37949,6.28733 -4.08574,10.35589 -2.69452,15.5225 1.35931,5.0481 3.34553,4.49121 2.49283,-0.69893 L 181.8548,129.5 l 2.02531,2.5 2.02532,2.5 5.32873,-5.25 c 8.99168,-8.85883 8.53062,-5.8148 -0.56732,3.74558 -5.76817,6.06136 -9.55636,11.0823 -11.61365,15.39297 -4.86125,10.18583 -3.9168,12.83929 2.96468,8.32935 1.91517,-1.25515 5.19688,-3.16765 7.29269,-4.25 4.16118,-2.14897 10.58015,-7.20126 17.86727,-14.06308 7.44244,-7.00808 6.95987,-5.1015 -0.64968,2.56681 -3.80502,3.8344 -6.65232,7.23753 -6.32735,7.5625 0.32498,0.32498 3.67524,0.62204 7.44503,0.66015 4.7785,0.0483 6.09709,0.30201 4.35417,0.83782 -1.375,0.4227 -3.44955,0.8134 -4.61012,0.86822 -1.16057,0.0548 -3.76108,1.65673 -5.77891,3.55979 -2.2504,2.12241 -5.10738,3.69808 -7.38988,4.07565 -2.0466,0.33855 -4.97302,1.09207 -6.50315,1.67449 -1.53014,0.58243 -3.02365,0.81738 -3.3189,0.52212 -0.89359,-0.89358 7.73965,-5.64869 13.60096,-7.49129 l 5.5,-1.72901 -3.78945,-0.31875 c -3.0859,-0.25957 -5.31719,0.60071 -12.01812,4.63366 -4.52577,2.72382 -9.79552,5.61494 -11.71055,6.4247 -1.91503,0.80976 -4.33318,2.42783 -5.37367,3.59572 -1.88519,2.11603 -1.87648,2.13037 2.5,4.11605 2.41549,1.09594 5.6156,2.00251 7.11137,2.01459 2.45198,0.0198 8.95401,2.95246 11.13778,5.02356 1.1385,1.07975 -1.88717,2.61448 -10.09565,5.12087 -8.16658,2.49359 -8.6456,2.88444 -6.78705,5.5379 3.42799,4.89412 18.77885,8.44208 27.9862,6.46827 z M 203,177.04977 c 0,-0.52262 1.9125,-2.52 4.25,-4.4386 5.67742,-4.66 19.31669,-15.38894 24.2665,-19.08854 2.19092,-1.63755 6.81457,-5.85649 10.27476,-9.37541 3.46019,-3.51892 6.48827,-6.20102 6.72906,-5.96023 0.2408,0.2408 -3.16001,4.56534 -7.55735,9.6101 -5.82525,6.68289 -10.90839,11.19182 -18.72907,16.61336 -5.90364,4.0926 -12.36361,8.82449 -14.35547,10.51532 -3.80214,3.22751 -4.87843,3.69611 -4.87843,2.124 z m -23,-11.2502 c 8.89493,-1.89809 20.88136,-5.84844 25.14981,-8.28859 6.29222,-3.5971 8.14033,-3.08319 2.29597,0.63845 -10.79894,6.87667 -16.34864,8.85849 -24.44578,8.72969 -7.3642,-0.11714 -7.41852,-0.13669 -3,-1.07955 z m -0.99111,-12.96554 c 0.008,-1.20628 3.65309,-5.86784 13.54591,-17.32349 3.55829,-4.12042 4.72367,-3.39136 1.77427,1.10999 -2.28114,3.48146 -0.30991,4.63681 4.82196,2.82618 6.61663,-2.33448 4.21438,0.15702 -4.39273,4.55593 -4.53293,2.31669 -9.93293,5.55164 -12,7.18879 -2.30217,1.82336 -3.75486,2.45977 -3.74941,1.6426 z M 230,146.21584 C 230,145.2044 240.31553,135 241.33798,135 c 1.37311,0 -2.73564,6.10515 -6.12278,9.09779 -3.23162,2.85523 -5.2152,3.66082 -5.2152,2.11805 z m -4.31077,-3.90967 c -0.36142,-0.58478 0.1013,-2.5804 1.02828,-4.43471 0.92697,-1.8543 1.87383,-5.95896 2.10414,-9.12146 0.3894,-5.34721 0.59303,-5.75 2.90695,-5.75 3.32816,0 3.06261,1.13082 -4.09405,17.43471 -0.72375,1.64881 -1.57613,2.46883 -1.94532,1.87146 z M 186,117.09067 c 0,-1.48489 5.88423,-5.9137 10.75,-8.09107 4.95181,-2.21586 5.80004,-0.84568 1,1.61535 -1.7875,0.91647 -5.1625,2.97464 -7.5,4.57372 -2.3375,1.59908 -4.25,2.45498 -4.25,1.902 z M 93.63296,192.22776 C 95.83278,190.44584 98.554069,186 97.44496,186 c -1.420726,0 -8.403893,5.59575 -8.423609,6.75 -0.03001,1.75678 2.095235,1.51611 4.611609,-0.52224 z M 92.5,186.56296 c 3.074125,-2.61861 3.729237,-3.6845 2.83024,-4.60489 -0.904445,-0.92596 -2.208611,-0.45154 -5.75,2.09169 -2.519132,1.8091 -4.58024,3.888 -4.58024,4.61976 0,2.34864 3.386421,1.39748 7.5,-2.10656 z m 14.21367,-1.14515 c 1.76752,-1.19851 6.94252,-3.14575 11.5,-4.3272 10.6213,-2.7534 20.58491,-7.30725 28.78633,-13.15674 3.575,-2.5498 10.55,-7.39808 15.5,-10.77397 10.95986,-7.4746 15.28109,-11.43952 16.12287,-14.79345 0.80628,-3.21246 -0.82871,-8.84336 -5.28334,-18.19581 -1.92007,-4.03114 -3.74671,-8.90491 -4.0592,-10.8306 l -0.56818,-3.50126 -2.23555,4.4101 c -1.22955,2.42556 -2.98277,6.98044 -3.89603,10.12197 -1.06209,3.65347 -2.63711,6.50779 -4.37053,7.92051 -1.49052,1.21475 -5.33015,4.75675 -8.5325,7.8711 -4.76812,4.63709 -7.1751,6.11355 -13.29226,8.15355 -10.09568,3.36679 -17.71562,8.11803 -23.26337,14.50535 -7.66175,8.82122 -15.160182,12.08418 -19.174834,8.34396 C 91.567964,168.94884 88,167.70592 88,169.09362 88,169.59213 88.644676,170 89.432612,170 c 0.787937,0 1.753419,1.01077 2.145517,2.24616 1.031962,3.25143 3.517889,4.80004 6.671871,4.15625 2.86598,-0.58499 3.5521,0.39549 1.625182,2.32241 -0.718635,0.71863 -0.879875,2.75821 -0.446512,5.64809 0.75218,5.0159 1.31057,5.096 7.285,1.0449 z m 42.89434,-30.20895 c -0.85921,-1.66152 -2.9225,-3.62308 -4.5851,-4.35901 C 141.50784,149.29392 141.09157,148 144.10608,148 c 1.15834,0 2.991,-1.125 4.07258,-2.5 2.6584,-3.37961 3.89475,-3.15476 2.53027,0.46017 -0.90753,2.40432 -0.78726,3.65236 0.64049,6.64638 2.22776,4.67165 0.59242,7.11545 -1.74141,2.60231 z m 10.47683,30.69915 c 3.52834,-1.15059 7.76516,-3.09622 9.41516,-4.32361 4.43676,-3.3004 7.72535,-4.25201 4,-1.15747 l -3,2.49201 8.5,-2.56301 c 4.675,-1.40966 8.695,-2.74892 8.93333,-2.97614 1.08688,-1.03619 -2.13748,-2.59388 -7.05173,-3.4067 -2.95988,-0.48957 -7.66496,-1.43144 -10.45574,-2.09306 l -5.07415,-1.20294 -5.42585,4.04551 c -2.98422,2.22503 -6.7483,5.44847 -8.36461,7.16319 -2.86172,3.03595 -2.88793,3.15613 -1,4.58414 2.4664,1.86557 1.99417,1.89343 9.52359,-0.56192 z m -71.281843,-2.99452 c 4.258609,-3.13182 4.969616,-4.31795 3.232031,-5.39184 -0.776502,-0.47991 -3.863154,1.1224 -9.908567,5.14363 -0.654141,0.43511 0.77635,3.33472 1.645152,3.33472 0.45891,0 2.723033,-1.38893 5.031384,-3.08651 z M 86.681287,177.75 c 3.480001,-2.3691 4.37398,-4.75 1.78353,-4.75 -2.103255,0 -6.332074,2.88345 -7.540608,5.14162 -1.429223,2.67052 1.557501,2.46736 5.757078,-0.39162 z m -0.885997,-7.9373 c 0.471762,-2.43088 -8.933165,-22.81612 -11.04882,-23.94839 -1.054769,-0.56449 -2.135116,-0.809 -2.400771,-0.54334 -0.265654,0.26565 2.091888,6.39161 5.238982,13.61324 5.244015,12.03343 7.425537,14.92379 8.210609,10.87849 z m 247.36079,-9.93595 c 0.91084,-0.46562 2.85448,-2.99076 4.31919,-5.61143 2.36307,-4.22798 2.5865,-5.42505 1.98307,-10.62429 -0.39825,-3.43132 -1.90028,-8.17911 -3.62465,-11.45718 -2.85144,-5.42068 -2.90946,-5.80599 -1.83416,-12.18109 1.17412,-6.96094 0.52112,-10.49584 -2.38432,-12.90714 -1.3613,-1.12978 -2.10912,-0.86914 -5.13897,1.7911 -2.62158,2.30178 -3.08061,3.10404 -1.76104,3.07784 0.98164,-0.0195 2.9098,-0.67854 4.2848,-1.46456 3.63471,-2.07779 4.71243,-1.81239 2.18856,0.53896 -1.20371,1.12142 -2.18856,2.92142 -2.18856,4 0,1.07857 -0.45,1.96104 -1,1.96104 -0.55,0 -1,-0.63925 -1,-1.42054 0,-0.7813 -1.39079,-1.72602 -3.09065,-2.09937 -2.40491,-0.52821 -2.98037,-1.10052 -2.59362,-2.57945 0.34571,-1.32198 -0.0252,-1.90064 -1.21822,-1.90064 -0.94339,0 -2.58876,-0.66645 -3.65638,-1.481 -1.68015,-1.28188 -1.73946,-1.61594 -0.44113,-2.48468 1.28685,-0.86107 1.25132,-1.00587 -0.25,-1.01901 -1.06378,-0.009 -1.75,0.73687 -1.75,1.9029 0,1.05502 -0.27314,2.63002 -0.60699,3.5 -0.42333,1.10318 -0.0273,1.58179 1.30887,1.58179 2.46398,0 6.03742,2.59404 5.00107,3.63038 -0.43665,0.43665 -1.78594,0.16222 -2.99843,-0.60984 -2.24745,-1.43109 -8.62996,-2.79507 -16.70452,-3.56986 l -4.5,-0.43179 3.58335,1.74055 c 8.17308,3.96995 18.98984,11.684 19.55806,13.94797 0.41701,1.6615 -0.44382,3.81129 -3.02943,7.56548 -4.52584,6.57131 -4.66308,10.29765 -0.62122,16.86651 1.64491,2.67333 2.55838,4.8606 2.02993,4.8606 -1.45524,0 -5.28169,-5.58739 -7.05748,-10.30536 -1.25533,-3.33521 -2.02797,-4.14583 -3.77101,-3.95643 -1.20571,0.13102 -2.1922,-0.11648 -2.1922,-0.55 0,-1.43849 2.3722,-3.18821 4.32244,-3.18821 3.31926,0 0.0775,-2.70643 -5.43482,-4.53733 -5.05842,-1.68013 -9.8374,-5.78573 -12.46973,-10.71267 -0.84163,-1.57529 -2.31262,-2.75 -3.44357,-2.75 -1.73431,0 -1.97699,0.69901 -1.99628,5.75 -0.0254,6.63664 -2.2351,12.21829 -6.82794,17.2468 -1.73255,1.89691 -3.1501,3.79863 -3.1501,4.22606 0,0.42743 1.55686,0.77714 3.45969,0.77714 2.73129,0 4.21085,0.81184 7.02737,3.85597 1.96222,2.12078 5.9105,5.13109 8.77395,6.68957 4.79494,2.60973 6.23469,2.8665 18.22263,3.24984 7.159,0.22893 13.19567,0.58543 13.41482,0.79222 0.50702,0.47842 5.08696,-0.60121 7.25762,-1.71085 z M 76,158.68783 c 0,-0.17169 -0.99706,-2.30919 -2.215688,-4.75 -1.919173,-3.84394 -2.264057,-4.12899 -2.577127,-2.13001 C 70.827099,154.23469 73.35537,159 75.023053,159 75.560374,159 76,158.85952 76,158.68783 Z m 1.031165,-15.86368 C 75.545385,141.62104 73.133183,141 69.94592,141 64.176068,141 62,138.72536 62,132.69416 c 0,-2.64155 -0.39476,-3.73082 -1.25,-3.44917 -3.226395,1.06255 -1.353386,9.56533 2.565945,11.64847 1.20123,0.63846 4.648775,1.54757 7.661211,2.02025 3.19992,0.5021 5.901688,1.53244 6.498231,2.47816 0.677391,1.07389 1.153598,1.22117 1.414794,0.43759 0.216544,-0.64964 -0.620013,-2.00202 -1.859016,-3.00531 z M 65.548056,135.09293 C 64.668377,133.39182 63.777325,132 63.567939,132 c -0.651481,0 0.668118,4.43259 1.718994,5.77417 1.750903,2.23526 1.917728,0.52228 0.261123,-2.68124 z M 73,138.56591 c 0,-0.23874 -1.177959,-3.15023 -2.617687,-6.46996 -2.326856,-5.36528 -5.435642,-8.37595 -7.016518,-6.79508 -0.265917,0.26592 0.864774,3.45701 2.512645,7.09131 C 68.163585,137.43196 69.364054,139 70.937285,139 72.071778,139 73,138.80466 73,138.56591 Z m 5.643868,-7.84872 c -1.111996,-4.43054 -6.412937,-8.53564 -12.542818,-9.71328 -3.080577,-0.59182 -7.06663,-1.729 -8.857895,-2.52706 -3.379717,-1.50576 -7.232915,-6.68291 -7.239417,-9.72685 -0.0046,-2.15755 -1.339957,-2.25473 -3.028315,-0.22039 -0.963116,1.16049 -1.00199,2.11667 -0.161088,3.96224 1.213094,2.66246 9.849553,9.44368 12.077852,9.48336 3.037838,0.0541 14.948548,4.12796 16.089997,5.50332 0.667761,0.80461 1.259329,3.05814 1.314595,5.00785 0.08717,3.0751 0.290145,3.35527 1.531503,2.11391 0.886853,-0.88685 1.196991,-2.36346 0.815586,-3.8831 z M 74,132.69113 c 0,-2.51848 -2.473767,-6.5507 -3.431365,-5.5931 C 69.948375,127.71829 72.662012,135 73.51342,135 73.781039,135 74,133.96101 74,132.69113 Z M 61.072039,110.48389 c -2.435474,-5.78796 -3.375745,-7.03784 -5.490894,-7.29892 l -2.55219,-0.31502 2.885859,6.81502 c 1.803712,4.25951 3.766943,7.27271 5.235523,8.03556 1.292315,0.67129 2.46458,0.88904 2.605034,0.48389 0.140454,-0.40516 -1.067045,-3.8794 -2.683332,-7.72053 z m 174.243701,6.3538 c 1.20134,-0.63927 3.78703,-2.44649 5.74596,-4.01605 2.69559,-2.15977 5.15914,-3.04604 10.1308,-3.64457 6.86888,-0.82694 11.00992,-2.81826 12.79434,-6.15249 1.6124,-3.01279 -2.92117,-3.839121 -6.6576,-1.21348 -1.85318,1.30226 -5.2078,2.18695 -9.72384,2.5644 -3.79204,0.31694 -7.61704,1.20785 -8.5,1.97979 -2.63101,2.30018 -7.84555,4.64539 -10.30574,4.63494 -2.89768,-0.0123 -11.44045,-3.95899 -17.30872,-7.99646 -4.94987,-3.405605 -5.82973,-6.637361 -2.93301,-10.773018 2.97305,-4.244625 -1.17879,-5.865016 -5.24348,-2.046438 -4.19849,3.944274 -2.59165,9.378458 4.85534,16.420326 10.12709,9.57616 20.81818,13.61025 27.14595,10.24305 z M 69.839485,114.45295 c 1.61412,-3.54261 1.423189,-6.27768 -0.776433,-11.12227 C 66.509569,97.706726 64.080354,96.606392 53.84537,96.437703 40.158539,96.212123 34.306905,92.039816 38.564368,85.542107 c 1.553638,-2.371151 1.556345,-2.525659 0.03402,-1.941489 -4.148742,1.592022 -4.640036,7.008004 -1.025388,11.30377 2.785384,3.31024 6.636346,4.64089 15.659219,5.410842 3.152721,0.26903 7.814671,1.49724 10.35989,2.72936 l 4.627671,2.24022 -0.423701,5.85759 c -0.456095,6.30546 0.196847,7.3633 2.043406,3.31055 z M 54.897404,110.75 c -1.178784,-2.3375 -2.377568,-4.475 -2.663964,-4.75 -1.012603,-0.97231 0.79492,6.32924 1.894943,7.65469 2.365426,2.85017 2.814935,1.15231 0.769021,-2.90469 z m 10.702065,-0.29029 c 0.433821,-1.72848 0.0708,-3.16657 -1.135935,-4.5 -1.685092,-1.86201 -5.008711,-2.7988 -4.291879,-1.20971 0.186076,0.4125 0.988976,2.4375 1.784221,4.5 1.690943,4.38553 2.757627,4.73968 3.643593,1.20971 z m 170.394321,-4.45572 c 2.83688,-1.82042 6.59888,-3.2191 9.58754,-3.56456 8.89394,-1.02804 9.89393,-1.36811 8.05503,-2.739326 -2.73456,-2.039093 -3.0756,-6.877764 -0.66605,-9.450104 1.15918,-1.2375 2.87757,-2.274219 3.81865,-2.303821 0.94107,-0.0296 -1.10841,-1.415385 -4.5544,-3.07952 C 245.95572,81.83449 243,78.409089 243,74.16467 c 0,-1.064058 -1.18028,-2.707997 -2.62284,-3.653199 -2.50262,-1.63978 -2.74325,-1.628735 -5.25,0.240968 -2.52712,1.884901 -4.54119,6.239514 -2.22329,4.806974 C 233.65309,75.09637 234,76.81825 234,81 c 0,3.824045 -0.37496,5.886299 -1,5.5 -0.55,-0.339919 -1,-2.538035 -1,-4.884703 0,-3.17564 -0.59605,-4.82663 -2.33097,-6.456501 -2.21512,-2.081002 -2.4062,-2.10209 -3.84481,-0.424314 C 224.9916,75.705517 222.89047,78.975 221.15503,82 c -1.73544,3.025 -5.18027,7.072911 -7.65518,8.995357 -5.53386,4.298546 -5.77703,6.793114 -1.01617,10.424403 4.58586,3.4978 13.39737,7.5582 16.42877,7.57047 1.32685,0.005 4.51345,-1.33844 7.08134,-2.98624 z M 227,105.25077 c 0,-1.97823 14.42316,-17.216666 16.31809,-17.240486 0.98521,-0.01238 -2.56328,5.118393 -4.8558,7.021013 -0.89709,0.744518 -2.92543,3.234947 -4.50741,5.534283 C 231.5336,104.08479 227,107.13887 227,105.25077 Z M 224.36163,95.5 c -0.40513,-1.055742 -2.09882,-1.512641 -5.71862,-1.542682 L 213.5,93.914638 218.71985,91.20732 c 2.87093,-1.489025 6.57953,-3.944818 8.24135,-5.457318 1.66181,-1.5125 3.20253,-2.75 3.42381,-2.75 0.65951,0 -1.58861,8.419815 -2.52318,9.45 C 227.38782,92.9725 227,94.21 227,95.2 c 0,2.179769 -1.83689,2.388635 -2.63837,0.3 z m 98.31737,10.29911 c 1.82655,-0.66049 3.321,-1.56049 3.321,-2 0,-1.47878 -3.16387,-0.81537 -5.72713,1.20089 -2.9189,2.29601 -2.30099,2.50123 2.40613,0.79911 z M 17.524358,97.43221 C 16.685961,94.213386 16,90.575905 16,89.348918 16,85.988477 17.854275,85.524938 18.55943,88.709102 19.884776,94.693774 22.204383,101 23.080367,101 c 1.247988,0 1.217274,-0.20961 -1.193905,-8.147891 C 20.724015,89.025008 20.110623,85.580151 20.523366,85.196872 20.93611,84.813592 21.438988,84.95 21.640872,85.5 c 0.933796,2.543968 4.525974,7.666487 5.025705,7.166757 C 26.973918,92.359415 26.673959,89.809375 26,87 25.326041,84.190625 25.111938,81.578836 25.524215,81.196023 25.936492,80.81321 26.474702,81.0625 26.720238,81.75 c 0.744705,2.085175 3.119519,1.398854 3.460211,-1 C 30.385808,79.304043 31.304043,78.385808 32.75,78.180449 34.378511,77.949164 35,77.189566 35,75.430449 35,73.8648 35.571797,73 36.606989,73 c 0.895542,0 1.377368,-0.5534 1.08833,-1.25 C 33.086595,60.642685 32.740396,60.101892 29.829253,59.462498 28.20676,59.106138 25.514518,57.480488 23.846491,55.849941 19.464952,51.56685 17.10324,52.316169 13.918089,59 c -1.44155,3.025 -2.944551,7.247811 -3.340001,9.384025 -0.6090608,3.290133 -0.478868,3.791878 0.851456,3.281385 1.245014,-0.477756 1.590242,0.16796 1.665933,3.115975 0.392499,15.286888 0.738269,18.159471 2.833199,23.537616 1.24666,3.200449 2.458667,5.626989 2.693348,5.392309 0.234681,-0.23468 -0.259269,-3.06028 -1.097666,-6.2791 z M 14.33855,76.439865 c -0.329274,-0.858074 -0.368991,-4.770333 -0.08826,-8.693907 0.415393,-5.80566 0.925664,-7.470018 2.740849,-8.939865 2.962687,-2.399039 5.202683,-2.277354 8.171512,0.443907 1.350082,1.2375 3.959313,3.398756 5.798291,4.802792 l 3.343597,2.552791 -1.812037,2.765518 c -1.401315,2.138677 -2.34248,2.632384 -4.152269,2.178156 C 26.674113,71.131087 26,71.38933 26,72.445764 c 0,1.73082 -2.938393,3.485359 -4.749474,2.83595 -0.687211,-0.246416 -1.522856,0.264391 -1.856989,1.135128 -0.782054,2.038 -4.275662,2.053912 -5.054987,0.02302 z M 18.956509,72.75 c 1.089284,-3.072643 1.228844,-3.147088 2.557381,-1.364181 1.346861,1.807498 1.455099,1.77635 2.606181,-0.75 1.326826,-2.912066 1.942643,-3.173105 3.592797,-1.522951 C 29.007181,70.407181 31,69.474705 31,67.574758 31,66.035768 22.268791,59 20.358943,59 17.365268,59 14.009212,69.302942 15.486615,73.957827 16.420244,76.899433 17.635449,76.476435 18.956509,72.75 Z M 320,102.01905 c 0,-1.37775 -4.64231,-2.388942 -6.74776,-1.4698 -1.43925,0.6283 -1.21636,0.89437 1.24776,1.48953 4.43803,1.07192 5.5,1.06811 5.5,-0.0197 z M 313,98 c 1.09005,-0.704444 0.27015,-0.969374 -3,-0.969374 -2.475,0 -5.175,0.436218 -6,0.969374 -1.09005,0.704444 -0.27015,0.969374 3,0.969374 2.475,0 5.175,-0.436218 6,-0.969374 z M 51.036525,87.25 C 42.819236,67.952932 38.037264,57.514095 37.310358,57.286375 36.864661,57.14675 35.843845,57.447136 35.041878,57.953899 33.513385,58.919755 34.542564,61.744073 43.804256,82 c 1.886089,4.125 3.815575,8.5125 4.287747,9.75 0.571484,1.497781 1.687672,2.25 3.338688,2.25 h 2.480193 z m 9.437795,1.79966 c 1.924955,-3.722453 1.969708,-9.43626 0.08615,-10.999473 -0.791741,-0.657086 -2.704241,-1.046967 -4.25,-0.866403 l -2.810472,0.3283 3,1.517122 c 2.598105,1.313881 2.991476,2.049879 2.936369,5.493958 -0.035,2.18726 -0.420642,4.764336 -0.856989,5.726836 -1.340931,2.957846 0.273489,1.9352 1.89494,-1.20034 z M 269.18807,87.75 c 0.86368,-0.6875 1.83571,-3.34835 2.16007,-5.913001 0.57345,-4.534141 0.5008,-4.696898 -2.62919,-5.889652 -2.31676,-0.882853 -2.74316,-1.34537 -1.52136,-1.650231 0.93368,-0.232968 2.59159,0.05487 3.68426,0.639653 2.80809,1.502841 3.33062,1.328753 2.22311,-0.740651 -1.19151,-2.226363 -0.32388,-3.702044 2.739,-4.658546 l 2.34396,-0.73199 -2.67395,-2.791004 c -2.21087,-2.307643 -2.61681,-3.535581 -2.34396,-7.090297 0.31069,-4.047826 0.0933,-4.459709 -3.71758,-7.041927 C 264.73338,48.68472 260,47.208525 260,48.934433 c 0,0.633187 -2.04086,3.333098 -4.53525,5.999803 l -4.53526,4.848555 3.48505,5.785337 c 1.91677,3.181936 3.28612,6.107194 3.043,6.500574 -0.24312,0.39338 -2.13303,-0.835855 -4.19979,-2.731633 C 249.96194,66.313923 248.94682,65.927681 245,66.1951 c -4.35732,0.295233 -4.49357,0.217709 -4.29705,-2.4451 0.22506,-3.049661 -0.80993,-3.530954 -2.6988,-1.255006 -1.77508,2.138846 1.21686,6.399207 5.0295,7.161736 2.46456,0.492912 2.84993,0.958943 2.37098,2.867244 -1.06227,4.232416 1.84067,7.516989 10.69586,12.101985 9.02288,4.671827 10.65402,5.061183 13.08758,3.124041 z m -8.06619,-27.653509 c -1.66651,-1.055551 -0.68927,-2.892767 2.23045,-4.193251 1.74407,-0.776834 1.52181,-0.859305 -1.18269,-0.438851 -3.76103,0.584708 -4.0389,-1.228759 -0.39483,-2.576788 1.6335,-0.604272 2.922,-0.172155 5.1985,1.743391 C 270.30772,57.436719 270.83287,59 268.44098,59 c -0.85746,0 -1.2809,0.45 -0.94098,1 0.76366,1.235636 -4.45498,1.314585 -6.37812,0.09649 z M 224.42184,73 c 2.65511,-3.810169 4.71006,-11.817585 2.71657,-10.585542 C 226.51228,62.801425 226,63.788214 226,64.607323 c 0,1.630943 -2.50629,7.115146 -5.9751,13.074547 -2.07694,3.568193 -2.0856,3.654479 -0.13223,1.31813 1.14961,-1.375 3.18774,-4.075 4.52917,-6 z M 76.632164,73 c 0.274625,0 1.369735,0.465833 2.433577,1.035184 2.229171,1.193016 2.289027,1.028125 0.927105,-2.554 -1.646876,-4.331612 -0.02706,-4.901674 3.745313,-1.31809 2.116338,2.010424 3.08617,2.541869 2.439716,1.336906 C 84.570834,68.504544 79.047746,63.079586 72.150805,57.722152 66.143401,53.055695 64.241651,50.444038 67.75,51.678563 c 2.957291,1.040618 0.322545,-1.097297 -8.75,-7.100022 -4.675,-3.09315 -9.175,-5.496135 -10,-5.339966 -1.06191,0.201015 -1.674698,2.107047 -2.098157,6.526159 -0.6157,6.425291 -2.543554,9.850967 -5.86931,10.4294 -1.581705,0.275098 -1.44546,1.029436 1.35443,7.498951 3.219069,7.438087 6.013444,9.74586 8.22328,6.79131 C 51.220876,69.667978 52.886015,69 54.310552,69 c 1.424537,0 2.997449,-0.72795 3.495359,-1.617666 0.828603,-1.480632 1.129728,-1.470611 3.554697,0.11829 2.089623,1.369173 2.953759,1.483364 4.089896,0.540454 1.182837,-0.981667 2.210422,-0.197018 5.744994,4.386794 3.979019,5.160193 4.328428,5.392875 4.620924,3.077212 C 75.990455,74.127288 76.357538,73 76.632164,73 Z M 43,61.688561 c 0,-1.271291 0.877496,-3.253319 1.94999,-4.404507 1.072495,-1.151188 2.922052,-4.161041 4.110127,-6.688562 2.520026,-5.361125 4.18657,-5.727399 9.835187,-2.161584 C 63.760685,51.505289 67,55.582442 67,58.634859 c 0,2.606223 -1.075957,2.930042 -4.192915,1.261896 -1.57963,-0.845392 -2.254916,-0.790183 -2.889268,0.23622 -0.65114,1.053566 -1.45952,1.10103 -3.787347,0.222374 -2.624091,-0.990484 -3.019055,-0.889404 -3.484863,0.891851 -0.403327,1.542324 -1.125538,1.89421 -3.109346,1.514981 C 48.115064,62.490502 46.711448,62.65787 46.417116,63.134109 45.310178,64.925172 43,63.947894 43,61.688561 Z m 3,-0.707613 c 0,-0.582831 1.051536,-0.755133 2.456481,-0.402515 2.052855,0.515234 2.565156,0.183538 3.117887,-2.018715 0.630493,-2.512086 0.771097,-2.56338 3.008336,-1.097485 C 57.506606,59.378047 58,59.3835 58,57.5 c 0,-1.956641 1.463162,-1.897856 4.644443,0.1866 2.455633,1.608992 2.557432,1.600167 2.212329,-0.191807 -0.198961,-1.033123 -2.798013,-3.864395 -5.775669,-6.291716 l -5.413922,-4.413309 -1.811355,2.355116 c -0.996245,1.295314 -1.82136,2.76264 -1.83359,3.260725 -0.01223,0.498085 -1.066621,2.298085 -2.343091,4 C 44.279909,60.937802 43.760019,62 44.940983,62 45.523442,62 46,61.541427 46,60.980948 Z m 180.0165,-0.549441 c 6.80636,-4.417781 8.05677,-5.14018 13.4835,-7.789828 8.85954,-4.325745 34.68046,-11.222661 38.95592,-10.405354 1.36596,0.261119 2.24562,0.08977 1.9548,-0.380782 C 280.11991,41.384994 278.64261,41 277.12785,41 c -1.51477,0 -5.78302,-1.826816 -9.48502,-4.059592 -7.62453,-4.59857 -15.20073,-6.322767 -23.43839,-5.334124 -5.11967,0.614438 -5.23865,0.69843 -3.58224,2.52875 0.94233,1.041261 4.11283,3.485903 7.04556,5.432538 2.93273,1.946635 5.32755,3.852782 5.32183,4.235882 C 252.97936,44.487496 241.8296,50 240.45626,50 c -0.38563,0 -0.13192,-0.685875 0.5638,-1.524166 0.69572,-0.838291 1.04601,-1.743096 0.77843,-2.010677 -0.62778,-0.627775 -8.61987,2.187789 -11.42227,4.023993 -1.18609,0.777155 -3.21846,1.558917 -4.51637,1.73725 -1.29792,0.178333 -2.95229,0.695408 -3.67638,1.149056 -0.72409,0.453648 -1.62409,0.516472 -2,0.139608 -0.64345,-0.645089 1.71738,-2.890665 7.00574,-6.66373 3.82964,-2.732312 1.26835,-3.220158 -3.74944,-0.714152 C 215.17565,50.264483 211,57.624745 211,68.064294 v 4.178654 l 5.25,-4.439968 c 2.8875,-2.441982 7.28242,-5.759145 9.7665,-7.371473 z m -5.33339,7.380993 c -0.31922,-0.797733 -0.55618,-0.560776 -0.60416,0.604167 -0.0434,1.054166 0.19292,1.644791 0.52522,1.3125 0.33229,-0.332292 0.36781,-1.194792 0.0789,-1.916667 z m 15.28509,-1.684945 c -0.0267,-1.36732 -0.26656,-1.317181 -1.5,0.313575 -1.91098,2.526539 -1.89075,4.154444 0.0318,2.55887 0.825,-0.684689 1.48569,-1.977289 1.4682,-2.872445 z M 238.00184,59 C 238.55083,59 239,58.55 239,58 c 0,-0.55 -0.44718,-1 -0.99373,-1 -1.39258,0 -7.01031,7.959589 -6.98727,9.900038 0.0104,0.879979 1.36128,-0.537538 3.00184,-3.150038 1.64056,-2.6125 3.43201,-4.75 3.981,-4.75 z M 247,62.602074 c 0,-1.515321 -4.89177,-8.586212 -5.38641,-7.785873 -0.77064,1.246932 0.21058,4.125109 2.1934,6.433799 C 245.16546,62.831736 247,63.608567 247,62.602074 Z M 34.25,54.607954 c 2.627618,-1.994646 2.111316,-2.570607 -1.187987,-1.325259 -1.615893,0.609931 -2.714335,1.470842 -2.440983,1.913135 0.68606,1.110069 1.583783,0.964642 3.62897,-0.587876 z M 256.61089,49.280303 C 255.75325,48.425673 252,52.54267 252,54.338057 c 0,0.614069 1.21364,-0.09715 2.69697,-1.580481 1.48333,-1.483334 2.3446,-3.048106 1.91392,-3.477273 z M 34.5,49.986305 c 0,-2.143506 -2.905668,-1.833904 -3.327118,0.354508 -0.257366,1.336396 0.149909,1.743671 1.486305,1.486305 C 33.671634,51.632139 34.5,50.803773 34.5,49.986305 Z M 271.69424,48.414928 C 270.15107,47.086718 268.16357,46 267.27757,46 c -1.88655,0 -1.50696,0.456031 2.92573,3.514865 4.16873,2.876682 5.21464,2.105062 1.49094,-1.099937 z M 216.5,44.123315 c 1.65,-0.892823 4.575,-1.6813 6.5,-1.752171 1.925,-0.07087 4.5125,-0.460855 5.75,-0.866631 1.79333,-0.588035 2.24987,-0.358919 2.24938,1.128856 -5.4e-4,1.631146 0.66115,1.820831 5.24508,1.503588 l 5.24571,-0.363042 -4.15149,-1.953897 c -5.67014,-2.668645 -7.07743,-6.180679 -5.51255,-13.757084 1.64661,-7.972112 1.48634,-9.730661 -1.04864,-11.50623 -2.61134,-1.829059 -6.24702,-1.986189 -10.62708,-0.459293 C 216.41487,17.399627 216.91584,19 221.05902,19 c 3.44411,0 3.7111,0.993078 0.94098,3.5 -2.64391,2.392708 -2.52244,3.330773 0.53055,4.097023 1.9105,0.479505 2.38466,1.094752 1.93518,2.510957 -0.42951,1.353255 0.0971,2.191341 1.89031,3.008381 1.36712,0.622902 2.26561,1.706027 1.99664,2.406944 -0.26896,0.700916 -0.008,1.571469 0.57915,1.934561 1.81749,1.123275 1.17658,2.383245 -0.93183,1.831883 -1.1,-0.287656 -2,-1.33923 -2,-2.336829 0,-1.107917 -0.8597,-1.938181 -2.20901,-2.133369 -1.39408,-0.201665 -2.42475,-1.239889 -2.79384,-2.8143 -0.33034,-1.409107 -1.4361,-2.648066 -2.541,-2.847064 -3.3234,-0.598567 -3.58251,-1.690848 -0.98089,-4.134947 l 2.50175,-2.350273 -2.2385,-1.116016 c -3.68345,-1.836397 -2.83768,-4.812344 1.76149,-6.19806 5.82886,-1.756217 9.66793,-1.569682 12.5,0.607357 2.1552,1.656723 2.45704,2.584621 2.18852,6.727764 -1.02391,15.798704 -1.07788,15.505339 3.31148,17.999853 7.47135,4.246034 8.96745,2.013324 2.45692,-3.666597 -4.50508,-3.930314 -4.73457,-5.022735 -3.47743,-16.552949 C 237.52043,9.9270387 236.9462,9.5 223.06706,9.5 213.48644,9.5 211.94021,9.2362647 207.2251,6.7978799 204.35129,5.3117139 202,4.5495176 202,5.1041104 c 0,0.5545927 2.1375,1.9955468 4.75,3.20212 L 211.5,10.5 l -7,0.32666 C 195.05948,11.267208 188.67252,9.7037264 180.56966,4.9686887 176.83437,2.7859099 173.58729,1 173.35393,1 c -1.41104,0 2.19833,4.178198 5.2256,6.0491538 C 182.09269,9.2204067 194.54315,13 198.18237,13 199.18207,13 200,13.45 200,14 c 0,1.356271 -15.56216,1.28725 -22.01978,-0.09766 -6.81029,-1.460545 -7.43589,-0.438379 -1.38476,2.26255 4.30352,1.920878 6.71206,2.195805 19.65454,2.243499 8.1125,0.02989 14.75,0.34553 14.75,0.701411 0,1.113431 -12.67924,3.890777 -17.70552,3.878334 -2.63696,-0.0065 -7.15698,-0.640797 -10.04448,-1.409487 -6.01816,-1.602113 -6.85324,-1.146467 -1.78212,0.972383 C 183.78505,23.519201 188.59645,24 195.96788,24 202.08776,24 207,24.413335 207,24.928284 c 0,0.510556 -2.5875,1.460315 -5.75,2.110575 -8.3851,1.72411 -8.41552,1.795686 -0.8,1.882194 7.76661,0.08822 7.78011,1.036308 0.05,3.510174 -4.8532,1.553169 -4.88256,1.585095 -1,1.0874 2.2,-0.282013 5.8,-0.806103 8,-1.164645 l 4,-0.651894 -2.5,2.115687 c -2.98953,2.529964 -2.45121,2.686526 2.34576,0.682225 5.3794,-2.247659 6.34119,-1.826458 3.23431,1.416425 -2.73073,2.850268 -2.74492,2.923991 -0.6254,3.25 2.05328,0.315818 1.98313,0.535507 -1.31768,4.127065 -2.9053,3.161203 -3.12393,3.681788 -1.3117,3.123315 1.19609,-0.368596 3.52471,-1.400667 5.17471,-2.29349 z M 31.5,44 C 31.839919,43.45 31.416476,43 30.559017,43 29.701558,43 29,43.45 29,44 c 0,0.55 0.423442,1 0.940983,1 0.517541,0 1.219098,-0.45 1.559017,-1 z m 163.22917,-9.604167 c -0.3323,-0.332291 -1.1948,-0.367818 -1.91667,-0.07895 -0.79773,0.319226 -0.56078,0.556183 0.60417,0.604167 1.05416,0.04342 1.64479,-0.192928 1.3125,-0.52522 z m 64.93067,-9.811598 C 257.49159,21.271023 253.0524,19.605668 245.25,19.17841 c -5.63535,-0.308592 -7.25245,-0.09428 -7.26101,0.96229 -0.006,0.747615 -0.28727,3.030437 -0.62494,5.072938 l -0.61393,3.713637 10.37494,0.286363 c 7.79379,0.215119 10.81328,-0.06586 12.13685,-1.129403 1.5321,-1.231102 1.584,-1.687617 0.39793,-3.5 z M 188.75,28.310674 c -0.9625,-0.251527 -2.5375,-0.251527 -3.5,0 -0.9625,0.251528 -0.175,0.457323 1.75,0.457323 1.925,0 2.7125,-0.205795 1.75,-0.457323 z m 3.51903,-7.966611 c -0.67703,-0.273923 -2.02703,-0.290597 -3,-0.03705 -0.97297,0.253544 -0.41903,0.477663 1.23097,0.498042 1.65,0.02038 2.44606,-0.187065 1.76903,-0.460988 z"
       id="path1" />
  </g>
</svg>
